<svg width="56" height="56" viewBox="0 0 56 56" fill="none" xmlns="http://www.w3.org/2000/svg">
<path d="M44.3987 7.33703H39.3325V5.07058C39.3325 4.33729 38.5326 4.00402 37.7993 4.00402H33.8663C32.9331 1.33755 30.5999 0.00431623 27.9335 0.00431623C25.2963 -0.0948246 22.8977 1.52218 22.0006 4.00402H18.1342C17.4009 4.00402 16.6676 4.33729 16.6676 5.07058V7.33703H11.6013C8.59896 7.36906 6.14277 9.73747 6.00165 12.7366V50.9336C6.00165 53.8667 8.66812 55.9999 11.6013 55.9999H44.3987C47.3319 55.9999 49.9984 53.8667 49.9984 50.9336V12.7367C49.8572 9.73747 47.401 7.36906 44.3987 7.33703ZM19.334 6.67048H23.0004C23.6404 6.59239 24.1545 6.10549 24.267 5.47058C24.6618 3.75138 26.1701 2.51729 27.9335 2.47084C29.6805 2.52379 31.1661 3.76171 31.5332 5.47058C31.6527 6.12744 32.2007 6.62059 32.8664 6.67048H36.6661V12.0034H19.334V6.67048ZM47.3319 50.9337C47.3319 52.4003 45.8653 53.3335 44.3987 53.3335H11.6013C10.1347 53.3335 8.66812 52.4003 8.66812 50.9337V12.7367C8.80414 11.2102 10.0689 10.0316 11.6013 10.0036H16.6675V13.4034C16.738 14.1503 17.3849 14.7091 18.1341 14.67H37.7992C38.5622 14.7117 39.2294 14.1607 39.3324 13.4034V10.0035H44.3986C45.9309 10.0316 47.1957 11.21 47.3318 12.7366V50.9337H47.3319Z" fill="#E31F26"/>
<path d="M22.8671 29.8021C22.367 29.275 21.5369 29.2452 21.0005 29.7355L16.7341 33.8018L14.9343 31.9352C14.4342 31.4081 13.6041 31.3785 13.0677 31.8686C12.5513 32.4096 12.5513 33.2608 13.0677 33.8018L15.8008 36.6016C16.0373 36.8664 16.379 37.0129 16.734 37.0016C17.0856 36.9966 17.4211 36.8528 17.6672 36.6016L22.8668 31.6686C23.3823 31.1958 23.4168 30.3945 22.9438 29.8791C22.9195 29.8522 22.8939 29.8266 22.8671 29.8021Z" fill="#E31F26"/>
<path d="M41.999 32.6685H26.6668C25.9305 32.6685 25.3336 33.2653 25.3336 34.0017C25.3336 34.738 25.9305 35.3349 26.6668 35.3349H41.999C42.7353 35.3349 43.3322 34.738 43.3322 34.0017C43.3322 33.2653 42.7353 32.6685 41.999 32.6685Z" fill="#E31F26"/>
<path d="M22.8671 19.1362C22.367 18.6091 21.5369 18.5793 21.0005 19.0696L16.7341 23.1359L14.9343 21.2693C14.4342 20.7422 13.6041 20.7125 13.0677 21.2027C12.5513 21.7437 12.5513 22.5949 13.0677 23.1359L15.8008 25.9357C16.0373 26.2006 16.379 26.347 16.734 26.3357C17.0856 26.3307 17.4211 26.1869 17.6672 25.9357L22.8668 21.0027C23.3823 20.5299 23.4168 19.7286 22.9438 19.2132C22.9195 19.1863 22.8939 19.1607 22.8671 19.1362Z" fill="#E31F26"/>
<path d="M41.999 22.0026H26.6668C25.9305 22.0026 25.3336 22.5995 25.3336 23.3358C25.3336 24.0721 25.9305 24.669 26.6668 24.669H41.999C42.7353 24.669 43.3322 24.0721 43.3322 23.3358C43.3322 22.5995 42.7353 22.0026 41.999 22.0026Z" fill="#E31F26"/>
<path d="M22.8671 40.4678C22.367 39.9407 21.5369 39.9111 21.0005 40.4012L16.7341 44.4675L14.9343 42.6009C14.4342 42.0738 13.6041 42.0442 13.0677 42.5343C12.5513 43.0753 12.5513 43.9265 13.0677 44.4675L15.8008 47.2673C16.0373 47.5322 16.379 47.6786 16.734 47.6673C17.0856 47.6623 17.4211 47.5185 17.6672 47.2673L22.8668 42.3344C23.3823 41.8615 23.4168 41.0602 22.9438 40.5449C22.9195 40.5181 22.8939 40.4924 22.8671 40.4678Z" fill="#E31F26"/>
<path d="M41.999 43.3344H26.6668C25.9305 43.3344 25.3336 43.9312 25.3336 44.6676C25.3336 45.4039 25.9305 46.0008 26.6668 46.0008H41.999C42.7353 46.0008 43.3322 45.4039 43.3322 44.6676C43.3322 43.9312 42.7353 43.3344 41.999 43.3344Z" fill="#E31F26"/>
</svg>
