<svg width="56" height="54" viewBox="0 0 56 54" fill="none" xmlns="http://www.w3.org/2000/svg">
<path d="M49 35.4028L48.9114 35.3172C47.3105 33.7735 45.1391 32.9062 42.875 32.9062C40.6109 32.9062 38.4396 33.7735 36.8386 35.3172L36.75 35.4028H28C27.3038 35.4028 26.6362 35.6695 26.1439 36.1442C25.6516 36.6189 25.375 37.2627 25.375 37.934C25.375 38.1439 25.4019 38.3529 25.4553 38.5563L16.6455 35.7241C16.2434 35.5949 15.8152 35.5597 15.3962 35.6214C14.9772 35.683 14.5794 35.8398 14.2356 36.0788C13.8918 36.3178 13.6118 36.6322 13.4187 36.996C13.2256 37.3599 13.125 37.7627 13.125 38.1714V38.2269C13.1231 38.663 13.2357 39.0925 13.4523 39.4753C13.6689 39.8581 13.9824 40.1818 14.3637 40.4163L29.5521 49.7364C30.4424 50.2828 31.4403 50.6458 32.483 50.8025C33.5257 50.9593 34.5908 50.9066 35.6114 50.6475L49 47.25H53.375V35.4028H49Z" fill="#F5D3BD"/>
<path d="M28 40.4652C27.4163 40.465 26.8492 40.2773 26.3883 39.9319C25.9274 39.5864 25.599 39.1027 25.4549 38.5572L16.6458 35.7243C16.2797 35.6054 15.8911 35.5651 15.5072 35.6062L27.125 41.8985H36.75V40.4652H28Z" fill="#F5D3BD"/>
<path d="M23.4253 24.5657L21.38 24.9012C21.0626 24.9532 20.7373 24.9372 20.427 24.8544C20.1168 24.7716 19.8293 24.624 19.5848 24.422C19.3404 24.22 19.1451 23.9686 19.0127 23.6857C18.8803 23.4028 18.8141 23.0952 18.8188 22.7848C18.8264 22.2907 19.0131 21.8147 19.3466 21.4395C19.68 21.0643 20.1392 20.8135 20.6444 20.7306L23.491 20.2638L23.4253 24.5657Z" fill="#E8C8B3"/>
<path d="M27.8865 24.6287L24.5 25.184C24.1263 25.2453 23.7421 25.1995 23.3951 25.0523C23.0481 24.905 22.7536 24.6629 22.548 24.3558C22.3899 24.1197 22.2891 23.8523 22.2531 23.5735C22.2171 23.2946 22.2467 23.0115 22.3399 22.7453C22.4331 22.4791 22.5873 22.2365 22.7912 22.0358C22.9951 21.835 23.2433 21.6812 23.5174 21.5857L28.9911 19.6797L27.8865 24.6287Z" fill="#E8C8B3"/>
<path d="M24.162 21.4772L24.8987 18.1778L33.4527 19.9537L34.3277 16.0356C34.4563 15.4594 34.4441 14.8622 34.2919 14.2913C34.1397 13.7205 33.8518 13.1916 33.4509 12.7466L30.211 9.15012C29.8331 8.73056 29.3643 8.3961 28.8377 8.17036C28.3111 7.94462 27.7395 7.8331 27.1633 7.84368L13.7251 8.09037L2.625 2.75439V15.4106L9.62019 18.4582L11.0649 20.1668C12.4214 21.7712 14.3038 22.8827 16.4024 23.3185C18.1798 23.6875 20.0345 23.4623 21.6614 22.6798L24.162 21.4772Z" fill="#F5D3BD"/>
<path d="M32.6813 22.4282L32.2209 24.4903C32.1604 24.7612 32.0453 25.0178 31.8819 25.2457C31.7186 25.4736 31.5103 25.6682 31.269 25.8185C31.0277 25.9688 30.758 26.0717 30.4754 26.1215C30.1928 26.1713 29.9028 26.1669 29.6219 26.1086C29.3411 26.0502 29.0749 25.9392 28.8386 25.7817C28.6023 25.6242 28.4005 25.4233 28.2447 25.1906C28.0888 24.9579 27.9821 24.6979 27.9305 24.4253C27.8789 24.1528 27.8834 23.8732 27.9439 23.6024L28.4043 21.5403L32.6813 22.4282Z" fill="#E8C8B3"/>
<path d="M29.729 17.4353C29.5985 17.4351 29.4696 17.4069 29.3518 17.3526C29.234 17.2983 29.1303 17.2193 29.0482 17.1214C28.9661 17.0235 28.9078 16.9091 28.8774 16.7867C28.8471 16.6642 28.8455 16.5368 28.8727 16.4137L29.2411 14.7639C29.2899 14.5452 29.4269 14.3541 29.6219 14.2327C29.8168 14.1113 30.0538 14.0696 30.2807 14.1167C30.5076 14.1638 30.7057 14.2959 30.8316 14.4839C30.9575 14.6719 31.0008 14.9004 30.9519 15.1192L30.5836 16.7688C30.5415 16.9573 30.4338 17.1263 30.2783 17.2476C30.1228 17.3688 29.929 17.4351 29.729 17.4353Z" fill="#E8C8B3"/>
<path d="M27.5735 17.9067C27.3978 17.9067 27.2263 17.8558 27.081 17.7606C26.9358 17.6653 26.8237 17.5301 26.7593 17.3726L25.1898 13.5385C25.1046 13.3303 25.1087 13.0981 25.201 12.8928C25.2934 12.6875 25.4666 12.526 25.6825 12.4438C25.8983 12.3617 26.1392 12.3655 26.3521 12.4546C26.565 12.5437 26.7325 12.7107 26.8177 12.9189L28.3871 16.753C28.4395 16.8809 28.4587 17.0193 28.4429 17.156C28.4272 17.2927 28.377 17.4237 28.2968 17.5374C28.2166 17.6512 28.1088 17.7443 27.9827 17.8086C27.8566 17.873 27.7161 17.9067 27.5735 17.9067Z" fill="#E8C8B3"/>
<path d="M40.6656 26.1352L34.3438 32.2313L28.0219 26.1352C27.7375 25.8609 27.5119 25.5353 27.358 25.177C27.2042 24.8187 27.125 24.4347 27.125 24.0469C27.125 23.2637 27.4477 22.5125 28.022 21.9587C28.5963 21.4049 29.3753 21.0938 30.1875 21.0938C30.5897 21.0937 30.9879 21.1701 31.3595 21.3185C31.7311 21.4669 32.0687 21.6844 32.3531 21.9586L34.3438 23.8781L36.3344 21.9586C36.6188 21.6844 36.9564 21.4669 37.328 21.3185C37.6996 21.1701 38.0978 21.0937 38.5 21.0938C39.3122 21.0938 40.0912 21.4049 40.6655 21.9587C41.2398 22.5125 41.5625 23.2637 41.5625 24.0469C41.5625 24.4347 41.4833 24.8187 41.3295 25.177C41.1756 25.5353 40.95 25.8609 40.6656 26.1352Z" fill="#F16465"/>
<path d="M16.5821 23.356C18.2433 23.7008 19.9767 23.4903 21.4973 22.7589L24.162 21.4772L31.268 22.3133C31.9477 22.3933 32.6339 22.2253 33.1917 21.8423C33.7496 21.4593 34.1388 20.8891 34.2829 20.2436C34.3588 19.9039 34.3645 19.5531 34.2998 19.2113C34.2351 18.8695 34.1012 18.5433 33.9057 18.2514C33.7103 17.9594 33.4571 17.7075 33.1607 17.5099C32.8642 17.3124 32.5304 17.173 32.1781 17.0999L25.4515 15.7034L18.6079 14.2826L16.5821 23.356Z" fill="#F5D3BD"/>
<path d="M36.75 41.1818C36.75 41.372 36.6717 41.5544 36.5322 41.6889C36.3927 41.8234 36.2035 41.899 36.0063 41.899H30.7257C28.3651 41.8988 26.0441 41.313 23.986 40.1981L15.5072 35.6062C15.8911 35.5651 16.2797 35.6054 16.6458 35.7243L25.4549 38.5572C25.599 39.1027 25.9274 39.5864 26.3883 39.9319C26.8492 40.2773 27.4163 40.465 28 40.4652H36.0063C36.2034 40.4652 36.3925 40.5406 36.532 40.675C36.6714 40.8094 36.7499 40.9917 36.75 41.1818Z" fill="#E8C8B3"/>
<path d="M53.375 34.5591H49.3582C47.6076 32.9587 45.2872 32.0666 42.875 32.0666C40.4627 32.0666 38.1423 32.9587 36.3918 34.5591H28C27.1724 34.5601 26.3718 34.8434 25.74 35.3589C25.1082 35.8744 24.6859 36.5888 24.5479 37.3757L16.9221 34.9241C16.3885 34.7526 15.8203 34.7059 15.2643 34.7877C14.7083 34.8695 14.1804 35.0776 13.7241 35.3947C13.2679 35.7118 12.8963 36.129 12.64 36.6118C12.3837 37.0945 12.25 37.6291 12.25 38.1715V38.2269C12.2472 38.805 12.3966 39.3745 12.6841 39.8819C12.9716 40.3893 13.3878 40.8181 13.8939 41.1282L29.0828 50.4483C30.0753 51.0559 31.1871 51.4597 32.3488 51.6344C33.5104 51.8091 34.6969 51.7509 35.8342 51.4636L49.1132 48.0938H53.375C53.607 48.0938 53.8296 48.0049 53.9937 47.8466C54.1578 47.6884 54.25 47.4738 54.25 47.25V35.4028C54.25 35.1791 54.1578 34.9644 53.9937 34.8062C53.8296 34.648 53.607 34.5591 53.375 34.5591ZM52.5 46.4063H49C48.9248 46.4063 48.85 46.4156 48.7773 46.4341L35.3883 49.8318C34.4842 50.0599 33.5412 50.1059 32.6179 49.967C31.6946 49.8282 30.8108 49.5074 30.0218 49.0246L14.8334 39.7046C14.5763 39.5463 14.365 39.3277 14.2192 39.0693C14.0735 38.8109 13.9981 38.521 14 38.2269V38.1715C14.0005 37.7122 14.1895 37.2718 14.5255 36.9463C14.8615 36.6208 15.3174 36.4367 15.7937 36.4341C15.9891 36.4343 16.1832 36.465 16.3685 36.525L24.7652 39.225C25.0296 39.8423 25.4782 40.37 26.0542 40.7411C26.6301 41.1121 27.3073 41.3098 28 41.3091H36.75C36.982 41.3091 37.2046 41.2202 37.3687 41.0619C37.5328 40.9037 37.625 40.6891 37.625 40.4653C37.625 40.2415 37.5328 40.0269 37.3687 39.8687C37.2046 39.7105 36.982 39.6216 36.75 39.6216H28C27.6111 39.6221 27.2331 39.4976 26.9258 39.2676C26.6186 39.0376 26.3998 38.7154 26.3039 38.3519V38.3498C26.2385 38.1008 26.2329 37.8406 26.2875 37.5891C26.3421 37.3376 26.4555 37.1015 26.6191 36.8986C26.7826 36.6958 26.992 36.5317 27.2313 36.4187C27.4706 36.3057 27.7335 36.2468 28 36.2466H36.75C36.8649 36.2466 36.9787 36.2248 37.0848 36.1824C37.191 36.14 37.2875 36.0778 37.3687 35.9995L37.4573 35.914C38.8952 34.5305 40.8436 33.7535 42.8749 33.7535C44.9062 33.7535 46.8545 34.5305 48.2924 35.914L48.381 35.9995C48.4623 36.0778 48.5588 36.14 48.665 36.1824C48.7712 36.2248 48.885 36.2466 49 36.2466H52.5V46.4063Z" fill="black"/>
<path d="M16.3558 24.1709C16.3697 24.1745 16.3837 24.1778 16.3979 24.1807C16.9738 24.3001 17.5613 24.3602 18.1503 24.36C18.1907 24.36 18.2311 24.3588 18.2713 24.3583C18.5664 24.9238 19.0419 25.383 19.6279 25.6684C20.2138 25.9538 20.8793 26.0503 21.5264 25.9437L22.5618 25.7739C23.1678 26.1841 23.9173 26.3468 24.6471 26.2267L26.7403 25.8834C26.9192 26.1947 27.1424 26.4803 27.4034 26.7319L33.7252 32.828C33.8065 32.9063 33.9029 32.9685 34.0091 33.0109C34.1153 33.0533 34.2291 33.0751 34.344 33.0751C34.4589 33.0751 34.5727 33.0533 34.6788 33.0109C34.785 32.9685 34.8815 32.9063 34.9627 32.828L41.2846 26.7319C42.023 26.0198 42.4379 25.054 42.4379 24.047C42.4379 23.0399 42.023 22.0741 41.2846 21.3621C40.5461 20.65 39.5446 20.2499 38.5002 20.2499C37.4559 20.2499 36.4543 20.65 35.7159 21.3621L34.3438 22.6849L33.9737 22.3281C34.5991 21.8023 35.0189 21.0859 35.1633 20.298C35.3077 19.5102 35.1681 18.6984 34.7676 17.9977C34.7901 17.9472 34.8075 17.8947 34.8194 17.841L35.1829 16.2133C35.3383 15.5089 35.3224 14.7794 35.1364 14.0819C34.9504 13.3844 34.5995 12.738 34.111 12.1932L30.871 8.59675C30.4097 8.08344 29.837 7.67431 29.1934 7.39836C28.5498 7.12242 27.8511 6.98644 27.1469 7.00006L13.9234 7.24264L3.01536 1.99926C2.88195 1.93514 2.73377 1.90494 2.58487 1.91153C2.43596 1.91813 2.29127 1.96129 2.16452 2.03693C2.03777 2.11258 1.93316 2.21819 1.86062 2.34376C1.78807 2.46933 1.75 2.61068 1.75 2.75442V15.4107C1.75001 15.573 1.79857 15.7319 1.88987 15.8682C1.98116 16.0046 2.11132 16.1127 2.26472 16.1795L9.07222 19.1452L10.3868 20.7001C11.8711 22.4511 13.9273 23.665 16.2194 24.1437C16.2649 24.1531 16.3103 24.1623 16.3558 24.1709ZM20.2933 24.0924C20.6588 23.9994 21.0173 23.8825 21.3664 23.7427C21.3798 23.9121 21.4095 24.0798 21.4552 24.2439L21.2336 24.2803C20.9067 24.3342 20.5707 24.2671 20.2928 24.0924H20.2933ZM24.3543 24.5632C24.1494 24.5969 23.9387 24.5718 23.7484 24.491C23.5581 24.4103 23.3966 24.2774 23.2839 24.109C23.1936 23.9738 23.1364 23.8206 23.1164 23.661C23.0965 23.5013 23.1143 23.3394 23.1686 23.1874C23.2257 23.0155 23.3333 22.8632 23.4784 22.7492L24.3177 22.3454L26.5452 22.6075C26.3507 23.0642 26.2504 23.5531 26.25 24.0469C26.25 24.1152 26.2522 24.1833 26.2559 24.2512L24.3543 24.5632ZM33.7256 24.4749C33.8068 24.5532 33.9033 24.6154 34.0094 24.6578C34.1156 24.7002 34.2294 24.722 34.3443 24.722C34.4592 24.722 34.573 24.7002 34.6792 24.6578C34.7853 24.6154 34.8818 24.5532 34.963 24.4749L36.9537 22.5553C37.1568 22.3594 37.398 22.204 37.6634 22.098C37.9288 21.992 38.2133 21.9374 38.5006 21.9374C38.7879 21.9374 39.0724 21.992 39.3378 22.098C39.6032 22.204 39.8444 22.3594 40.0475 22.5553C40.2507 22.7512 40.4118 22.9838 40.5218 23.2397C40.6317 23.4957 40.6883 23.77 40.6883 24.047C40.6883 24.3241 40.6317 24.5984 40.5218 24.8543C40.4118 25.1103 40.2507 25.3428 40.0475 25.5387L34.3438 31.038L28.6408 25.5388C28.2752 25.1866 28.0509 24.7209 28.0077 24.2243C27.9644 23.7277 28.105 23.2325 28.4046 22.8264L31.1621 23.1508C31.5448 23.1958 31.9323 23.1823 32.3106 23.1107L33.7256 24.4749ZM11.7437 19.6338L10.299 17.9253C10.2134 17.8239 10.1045 17.7432 9.98102 17.6895L3.5 14.866V4.11781L13.3348 8.84545C13.4616 8.90486 13.6009 8.93518 13.7419 8.93404L27.1797 8.68735C27.1994 8.68735 27.2188 8.68672 27.2384 8.68672C27.6768 8.68624 28.1102 8.77677 28.5091 8.95215C28.908 9.12753 29.2631 9.38365 29.5502 9.70312L32.7906 13.2996C33.1014 13.6463 33.3248 14.0576 33.4431 14.5015C33.5614 14.9453 33.5715 15.4095 33.4726 15.8577L33.3056 16.606C33.0087 16.4541 32.6913 16.3425 32.3626 16.2747L30.7683 15.9436L30.9525 15.1188C31.0013 14.9001 30.958 14.6715 30.8322 14.4835C30.7063 14.2955 30.5081 14.1635 30.2812 14.1164C30.0544 14.0692 29.8174 14.111 29.6224 14.2324C29.4274 14.3537 29.2905 14.5448 29.2416 14.7636L29.0574 15.5885L27.8045 15.3283L26.8181 12.9185C26.7329 12.7104 26.5654 12.5434 26.3525 12.4543C26.1396 12.3652 25.8988 12.3613 25.6829 12.4435C25.467 12.5257 25.2939 12.6872 25.2015 12.8925C25.1091 13.0978 25.1051 13.33 25.1903 13.5382L25.7481 14.9015L23.9106 14.52C23.7976 14.495 23.6806 14.4919 23.5664 14.5108C23.4522 14.5298 23.343 14.5704 23.2452 14.6304C23.1474 14.6904 23.0629 14.7685 22.9967 14.8602C22.9305 14.952 22.8838 15.0555 22.8594 15.1647C22.835 15.274 22.8334 15.3868 22.8546 15.4967C22.8758 15.6066 22.9194 15.7113 22.9829 15.8048C23.0465 15.8983 23.1286 15.9786 23.2246 16.0413C23.3206 16.1039 23.4286 16.1475 23.5422 16.1695L31.9944 17.9244C32.4648 18.0219 32.8782 18.2905 33.1483 18.6745C33.4185 19.0584 33.5247 19.528 33.4449 19.9856C33.365 20.4432 33.1052 20.8534 32.7196 21.1309C32.3339 21.4084 31.8522 21.5317 31.3745 21.4753L24.2685 20.6393C24.0982 20.6193 23.9255 20.648 23.772 20.7219L23.0986 21.0457C23.0965 21.0464 23.0943 21.0468 23.0922 21.0475C22.908 21.1118 22.7323 21.1967 22.5688 21.3007L21.1073 22.0036C19.7813 22.6393 18.2728 22.8289 16.8222 22.542C16.7974 22.5353 16.7722 22.5295 16.7467 22.5248C16.6933 22.515 16.6398 22.5045 16.5874 22.4932C14.6837 22.0958 12.9761 21.0878 11.7432 19.6338H11.7437Z" fill="black"/>
</svg>
