<svg width="1439" height="487" viewBox="0 0 1439 487" fill="none" xmlns="http://www.w3.org/2000/svg">
<path d="M1429.12 14.8961C1429.12 14.8961 1434.08 18.209 1434.08 18.3058C1434.08 18.4025 1388.44 13.2517 1388.08 13.8321C1388.08 13.8321 1403.08 24.2062 1403.06 24.2787C1402.8 24.8107 1352.24 18.0881 1352.1 18.3783C1351.96 18.6685 1356.48 21.2801 1356.42 21.4011C1355.86 22.6102 1303.99 14.2674 1303.61 15.0412C1303.61 15.2105 1320.29 26.6485 1320.27 26.6727C1319.75 27.7609 1266.63 16.8065 1265.89 18.3541C1265.89 18.3541 1270.85 21.4252 1270.71 21.7154C1270.11 22.9971 1227.57 16.879 1227.31 17.4836C1227.31 17.6287 1236.47 23.5291 1236.33 23.7951C1235.97 24.5447 1171.97 7.61736 1171.47 8.68136C1171.23 9.165 1197.47 26.6727 1197.47 26.7694C1196.75 28.2929 1147.46 15.4281 1146.82 16.6856C1146.66 16.9999 1159.8 25.3669 1159.66 25.6329C1159.22 26.5518 1099.96 9.93882 1099.88 10.0839C1099.8 10.229 1114.1 19.539 1113.88 19.9018C1113.66 20.2645 1066.88 12.8648 1066.3 14.0739C1066.3 14.2432 1084.64 26.1649 1084.4 26.7211C1083.94 27.6642 1028 15.6699 1027.72 16.2745C1027.72 16.2745 1038.36 23.0454 1038.12 23.5291C1037.66 24.5205 995.955 18.475 995.535 19.3214C995.535 19.539 1004.66 25.3911 1004.56 25.6087C1004.16 26.4309 942.812 11.9701 942.552 12.357C942.552 12.357 955.233 21.1592 955.213 21.1834C954.813 22.054 906.95 11.8008 906.39 12.9616C906.25 13.2517 918.051 21.0141 918.031 21.0625C918.011 21.1109 874.769 16.2261 874.529 16.7098C874.289 17.1934 879.189 19.6116 879.069 19.8776C878.949 20.1436 838.447 16.9274 838.047 17.9189C838.047 17.9189 844.847 22.054 844.627 22.5134C844.407 22.9729 792.924 13.8079 792.344 15.017C792.224 15.283 808.025 25.778 807.945 25.8989C807.865 26.0198 756.222 16.6856 755.742 17.677C758.119 19.109 760.417 20.7245 762.622 22.5134C762.622 22.5134 703.239 9.57609 702.619 10.9545C702.519 11.1721 721.02 23.4565 720.9 23.6983C720.14 25.3185 666.397 15.5248 666.217 15.8634C666.037 16.2019 680.638 25.2702 680.398 25.778C679.878 26.8662 624.515 13.687 623.995 14.8719C623.995 14.8719 641.996 27.1564 641.856 27.3256C641.456 28.172 582.092 9.72119 581.712 10.3983C581.712 10.5676 604.014 25.8022 603.954 25.9231C603.354 27.1564 558.911 20.458 558.591 21.0867C558.591 21.256 562.751 23.9643 562.751 23.9885C562.371 24.7865 500.328 7.39972 499.948 8.19772C499.788 8.56045 530.39 29.1635 530.29 29.3569C530.189 29.5504 468.486 14.751 467.866 16.0569C467.866 16.2745 475.126 20.6514 474.946 21.0141C474.506 21.9331 430.484 15.5974 429.964 16.6372C429.764 17.0725 448.965 29.4536 448.805 29.7922C448.645 30.1307 390.222 12.7197 389.542 14.1465C389.362 14.5092 407.783 26.842 407.763 26.8662C407.063 28.3413 348.099 11.1721 347.759 11.9459C347.419 12.7197 363.18 22.2958 363.02 22.6102C362.86 22.9245 311.017 12.1152 311.017 12.1636C311.017 12.2119 332.318 26.842 332.238 26.9871C331.318 28.9216 268.075 9.91464 267.495 11.0996C267.395 11.3172 286.576 23.916 286.396 24.2787C285.776 25.5845 229.833 15.2105 229.793 15.3072C229.553 15.7909 247.634 27.2531 247.454 27.6158C246.534 29.5504 179.65 4.40116 178.83 6.11808C178.61 6.60172 200.311 21.0141 200.271 21.1109C199.771 22.1507 149.548 11.4381 149.388 11.6557C149.228 11.8734 163.129 21.1351 163.089 21.2076C162.649 22.1507 123.087 17.943 122.707 18.7894C122.587 19.0312 126.707 21.2076 126.547 21.4736C126.387 21.7396 77.8443 12.6714 77.4643 13.4694C77.3243 13.7354 93.4652 24.5689 93.4652 24.6173C92.9252 25.7538 48.0827 18.3541 47.9027 18.7169C47.7227 19.0796 59.3433 26.2133 59.1633 26.576C58.7033 27.5674 7.02041 16.9032 6.24037 18.4267C6.00035 18.6443 14.7008 24.182 14.6208 24.3271" stroke="#845EC2" stroke-width="5" stroke-linecap="round" stroke-linejoin="round"/>
<path d="M1427.9 466.034C1427.9 466.034 1432.86 469.347 1432.8 469.468C1432.74 469.589 1387.22 464.39 1386.94 464.946C1386.94 464.946 1401.96 475.344 1401.92 475.417C1401.68 475.949 1351.12 469.226 1350.96 469.541C1350.8 469.855 1355.34 472.418 1355.28 472.539C1354.72 473.748 1302.85 465.285 1302.47 466.179C1302.47 466.325 1319.17 477.811 1319.15 477.835C1318.65 478.923 1265.49 467.945 1264.75 469.492C1264.75 469.492 1269.73 472.563 1269.59 472.854C1268.97 474.135 1226.43 468.017 1226.17 468.622C1226.17 468.767 1235.35 474.667 1235.23 474.957C1234.85 475.707 1170.85 458.756 1170.35 459.82C1170.11 460.327 1196.35 477.811 1196.35 477.908C1195.61 479.455 1146.24 466.542 1145.64 467.8C1145.48 468.114 1158.66 476.505 1158.54 476.771C1158.1 477.69 1098.82 461.077 1098.74 461.222C1098.66 461.367 1112.98 470.677 1112.74 471.04C1112.5 471.403 1066.2 464.342 1065.62 465.527C1065.62 465.696 1083.62 477.4 1083.28 477.859C1082.84 478.827 1026.88 466.808 1026.58 467.413C1026.58 467.413 1037.24 474.184 1037 474.667C1036.52 475.635 994.835 469.589 994.435 470.46C994.315 470.677 1003.54 476.529 1003.44 476.747C1003.04 477.569 941.672 463.084 941.432 463.471C941.432 463.471 954.153 472.273 954.133 472.322C953.713 473.168 905.83 462.915 905.29 464.076C905.13 464.366 916.951 472.152 916.931 472.201C916.911 472.249 873.689 467.364 873.449 467.848C873.209 468.332 878.089 470.726 877.949 470.992C877.809 471.258 837.227 468.162 836.787 469.057C836.787 469.057 843.547 473.168 843.327 473.627C843.107 474.087 791.644 464.922 791.064 466.131C790.944 466.397 806.745 476.892 806.685 477.013C806.625 477.134 754.962 467.8 754.482 468.791C756.852 470.223 759.144 471.839 761.342 473.627C761.342 473.627 701.959 460.69 701.339 462.069C701.339 462.286 719.76 474.595 719.64 474.837C718.88 476.433 665.117 466.639 664.937 466.977C664.757 467.316 679.478 476.457 679.218 476.965C678.698 478.053 623.215 464.874 622.715 465.962C622.715 465.962 640.716 478.319 640.716 478.488C640.316 479.334 580.812 460.787 580.452 461.561C580.452 461.73 602.834 477.013 602.774 477.134C602.173 478.391 557.691 471.669 557.391 472.297C558.743 473.349 560.138 474.317 561.571 475.199C561.171 475.997 499.148 458.635 498.768 459.408C498.608 459.771 529.209 480.374 529.109 480.592C529.009 480.81 467.366 465.889 466.746 467.195C466.746 467.413 474.006 471.814 473.846 472.152C473.406 473.071 429.344 466.736 428.844 467.775C428.624 468.211 447.845 480.616 447.685 480.955C447.525 481.293 389.082 463.858 388.402 465.285C388.222 465.647 406.663 477.98 406.643 478.004C405.943 479.48 346.959 462.31 346.639 463.084C346.319 463.858 362.08 473.458 361.92 473.773C361.76 474.087 309.917 463.278 309.917 463.302C309.917 463.326 331.198 477.98 331.138 478.125C330.198 480.06 266.955 461.053 266.375 462.238C266.375 462.455 285.456 475.054 285.276 475.417C284.656 476.723 228.733 466.349 228.673 466.445C228.433 466.929 246.494 478.367 246.314 478.754C245.394 480.689 178.55 455.564 177.73 457.281C177.49 457.764 199.191 472.152 199.171 472.249C198.671 473.289 148.428 462.576 148.288 462.794C148.148 463.012 162.029 472.273 161.989 472.467C161.549 473.386 121.987 469.178 121.587 470.049C121.467 470.315 125.587 472.346 125.447 472.757C125.307 473.168 76.8243 463.882 76.4443 464.68C76.3243 464.946 92.4452 475.755 92.4452 475.804C91.8851 476.965 47.0626 469.565 46.8826 469.928C46.7026 470.29 58.0032 477.352 58.0032 477.714C57.5232 478.706 5.88034 468.041 5.1003 469.613C5.1003 469.807 13.6008 475.32 13.5208 475.465" stroke="#845EC2" stroke-width="5" stroke-linecap="round" stroke-linejoin="round"/>
<path d="M2.76016 19.6116V470.75" stroke="#845EC2" stroke-miterlimit="10"/>
<path d="M1437.8 19.6116V470.75" stroke="#845EC2" stroke-miterlimit="10"/>
<path d="M1437.8 19.6116H2.76016V470.75H1437.8V19.6116Z" fill="#845EC2" stroke="#845EC2" stroke-miterlimit="10"/>
</svg>
