<svg width="52" height="52" viewBox="0 0 52 52" fill="none" xmlns="http://www.w3.org/2000/svg">
<g clip-path="url(#clip0)">
<path d="M50.5975 22.6175C50.5963 22.6163 50.5951 22.6151 50.5939 22.6139L29.382 1.40283C28.4779 0.498291 27.2758 0 25.9971 0C24.7185 0 23.5164 0.497894 22.6119 1.40244L1.41109 22.6028C1.40395 22.61 1.39681 22.6175 1.38966 22.6246C-0.467025 24.492 -0.463851 27.5219 1.39879 29.3845C2.24977 30.2359 3.3737 30.729 4.57539 30.7806C4.62419 30.7853 4.67339 30.7877 4.72298 30.7877H5.56841V46.3978C5.56841 49.4867 8.08168 52 11.1714 52H19.4702C20.3112 52 20.9936 51.318 20.9936 50.4766V38.2383C20.9936 36.8287 22.1402 35.6822 23.5497 35.6822H28.4446C29.8541 35.6822 31.0007 36.8287 31.0007 38.2383V50.4766C31.0007 51.318 31.6827 52 32.5241 52H40.8229C43.9126 52 46.4259 49.4867 46.4259 46.3978V30.7877H47.2098C48.4881 30.7877 49.6902 30.2898 50.5951 29.3853C52.4597 27.5195 52.4605 24.4845 50.5975 22.6175Z" fill="#FDD60C"/>
</g>
<defs>
<clipPath id="clip0">
<rect width="52" height="52" fill="white"/>
</clipPath>
</defs>
</svg>
