<svg width="45" height="44" viewBox="0 0 45 44" fill="none" xmlns="http://www.w3.org/2000/svg">
<g clip-path="url(#clip0)">
<path d="M15.4513 21.9162C15.4513 17.9119 18.6965 14.6649 22.7008 14.6649C26.7052 14.6649 29.9521 17.9119 29.9521 21.9162C29.9521 25.9206 26.7052 29.1675 22.7008 29.1675C18.6965 29.1675 15.4513 25.9206 15.4513 21.9162ZM11.5314 21.9162C11.5314 28.0852 16.5319 33.0857 22.7008 33.0857C28.8698 33.0857 33.8703 28.0852 33.8703 21.9162C33.8703 15.7473 28.8698 10.7468 22.7008 10.7468C16.5319 10.7468 11.5314 15.7473 11.5314 21.9162ZM31.7022 10.3039C31.702 10.8201 31.8549 11.3249 32.1416 11.7542C32.4282 12.1836 32.8357 12.5183 33.3126 12.7161C33.7895 12.9138 34.3143 12.9657 34.8207 12.8652C35.3271 12.7647 35.7923 12.5163 36.1575 12.1514C36.5227 11.7865 36.7715 11.3215 36.8724 10.8152C36.9733 10.3089 36.9218 9.78403 36.7245 9.30699C36.5271 8.82995 36.1927 8.42214 35.7635 8.13515C35.3344 7.84816 34.8298 7.69487 34.3135 7.69467H34.3125C33.6205 7.69499 32.9569 7.96996 32.4675 8.45918C31.9781 8.9484 31.7028 9.61188 31.7022 10.3039ZM13.913 39.622C11.7922 39.5254 10.6395 39.1721 9.8735 38.8737C8.85793 38.4783 8.13333 38.0075 7.37148 37.2466C6.60963 36.4858 6.13804 35.7619 5.74441 34.7464C5.4458 33.9807 5.09255 32.8277 4.99614 30.7069C4.89069 28.414 4.86963 27.7253 4.86963 21.9164C4.86963 16.1075 4.89243 15.4207 4.99614 13.1259C5.09272 11.0052 5.44859 9.85439 5.74441 9.08646C6.13978 8.07089 6.61067 7.34628 7.37148 6.58443C8.13228 5.82259 8.85619 5.351 9.8735 4.95737C10.6392 4.65876 11.7922 4.3055 13.913 4.2091C16.2058 4.10364 16.8946 4.08259 22.7008 4.08259C28.5071 4.08259 29.1966 4.10538 31.4913 4.2091C33.6121 4.30568 34.7629 4.66154 35.5308 4.95737C36.5464 5.351 37.271 5.82363 38.0328 6.58443C38.7947 7.34524 39.2645 8.07089 39.6599 9.08646C39.9585 9.85213 40.3117 11.0052 40.4082 13.1259C40.5136 15.4207 40.5347 16.1075 40.5347 21.9164C40.5347 27.7253 40.5136 28.4121 40.4082 30.7069C40.3116 32.8277 39.9566 33.9803 39.6599 34.7464C39.2645 35.7619 38.7936 36.4865 38.0328 37.2466C37.272 38.0068 36.5464 38.4783 35.5308 38.8737C34.7651 39.1723 33.6121 39.5256 31.4913 39.622C29.1985 39.7274 28.5097 39.7485 22.7008 39.7485C16.892 39.7485 16.2051 39.7274 13.913 39.622ZM13.7329 0.295794C11.4172 0.401248 9.83487 0.768425 8.45299 1.30614C7.02188 1.86143 5.81037 2.6064 4.59973 3.81512C3.38909 5.02385 2.64603 6.23727 2.09075 7.66839C1.55303 9.05113 1.18586 10.6326 1.0804 12.9483C0.973206 15.2676 0.948669 16.009 0.948669 21.9162C0.948669 27.8234 0.973206 28.5649 1.0804 30.8842C1.18586 33.2 1.55303 34.7813 2.09075 36.1641C2.64603 37.5943 3.38926 38.8092 4.59973 40.0174C5.81019 41.2256 7.02188 41.9695 8.45299 42.5263C9.83748 43.0641 11.4172 43.4312 13.7329 43.5367C16.0534 43.6421 16.7936 43.6684 22.7008 43.6684C28.608 43.6684 29.3495 43.6439 31.6688 43.5367C33.9846 43.4312 35.5659 43.0641 36.9487 42.5263C38.3789 41.9695 39.5913 41.2261 40.802 40.0174C42.0126 38.8086 42.7541 37.5943 43.3109 36.1641C43.8487 34.7813 44.2176 33.1999 44.3213 30.8842C44.4267 28.5632 44.4513 27.8234 44.4513 21.9162C44.4513 16.009 44.4267 15.2676 44.3213 12.9483C44.2158 10.6324 43.8487 9.05026 43.3109 7.66839C42.7541 6.23814 42.0107 5.02576 40.802 3.81512C39.5932 2.60448 38.3789 1.86143 36.9504 1.30614C35.5659 0.768425 33.9845 0.399508 31.6706 0.295794C29.3513 0.190339 28.6098 0.164062 22.7026 0.164062C16.7954 0.164062 16.0534 0.188599 13.7329 0.295794Z" fill="url(#paint0_radial)"/>
<path d="M15.4513 21.9162C15.4513 17.9119 18.6965 14.6649 22.7008 14.6649C26.7052 14.6649 29.9521 17.9119 29.9521 21.9162C29.9521 25.9206 26.7052 29.1675 22.7008 29.1675C18.6965 29.1675 15.4513 25.9206 15.4513 21.9162ZM11.5314 21.9162C11.5314 28.0852 16.5319 33.0857 22.7008 33.0857C28.8698 33.0857 33.8703 28.0852 33.8703 21.9162C33.8703 15.7473 28.8698 10.7468 22.7008 10.7468C16.5319 10.7468 11.5314 15.7473 11.5314 21.9162ZM31.7022 10.3039C31.702 10.8201 31.8549 11.3249 32.1416 11.7542C32.4282 12.1836 32.8357 12.5183 33.3126 12.7161C33.7895 12.9138 34.3143 12.9657 34.8207 12.8652C35.3271 12.7647 35.7923 12.5163 36.1575 12.1514C36.5227 11.7865 36.7715 11.3215 36.8724 10.8152C36.9733 10.3089 36.9218 9.78403 36.7245 9.30699C36.5271 8.82995 36.1927 8.42214 35.7635 8.13515C35.3344 7.84816 34.8298 7.69487 34.3135 7.69467H34.3125C33.6205 7.69499 32.9569 7.96996 32.4675 8.45918C31.9781 8.9484 31.7028 9.61188 31.7022 10.3039ZM13.913 39.622C11.7922 39.5254 10.6395 39.1721 9.8735 38.8737C8.85793 38.4783 8.13333 38.0075 7.37148 37.2466C6.60963 36.4858 6.13804 35.7619 5.74441 34.7464C5.4458 33.9807 5.09255 32.8277 4.99614 30.7069C4.89069 28.414 4.86963 27.7253 4.86963 21.9164C4.86963 16.1075 4.89243 15.4207 4.99614 13.1259C5.09272 11.0052 5.44859 9.85439 5.74441 9.08646C6.13978 8.07089 6.61067 7.34628 7.37148 6.58443C8.13228 5.82259 8.85619 5.351 9.8735 4.95737C10.6392 4.65876 11.7922 4.3055 13.913 4.2091C16.2058 4.10364 16.8946 4.08259 22.7008 4.08259C28.5071 4.08259 29.1966 4.10538 31.4913 4.2091C33.6121 4.30568 34.7629 4.66154 35.5308 4.95737C36.5464 5.351 37.271 5.82363 38.0328 6.58443C38.7947 7.34524 39.2645 8.07089 39.6599 9.08646C39.9585 9.85213 40.3117 11.0052 40.4082 13.1259C40.5136 15.4207 40.5347 16.1075 40.5347 21.9164C40.5347 27.7253 40.5136 28.4121 40.4082 30.7069C40.3116 32.8277 39.9566 33.9803 39.6599 34.7464C39.2645 35.7619 38.7936 36.4865 38.0328 37.2466C37.272 38.0068 36.5464 38.4783 35.5308 38.8737C34.7651 39.1723 33.6121 39.5256 31.4913 39.622C29.1985 39.7274 28.5097 39.7485 22.7008 39.7485C16.892 39.7485 16.2051 39.7274 13.913 39.622ZM13.7329 0.295794C11.4172 0.401248 9.83487 0.768425 8.45299 1.30614C7.02188 1.86143 5.81037 2.6064 4.59973 3.81512C3.38909 5.02385 2.64603 6.23727 2.09075 7.66839C1.55303 9.05113 1.18586 10.6326 1.0804 12.9483C0.973206 15.2676 0.948669 16.009 0.948669 21.9162C0.948669 27.8234 0.973206 28.5649 1.0804 30.8842C1.18586 33.2 1.55303 34.7813 2.09075 36.1641C2.64603 37.5943 3.38926 38.8092 4.59973 40.0174C5.81019 41.2256 7.02188 41.9695 8.45299 42.5263C9.83748 43.0641 11.4172 43.4312 13.7329 43.5367C16.0534 43.6421 16.7936 43.6684 22.7008 43.6684C28.608 43.6684 29.3495 43.6439 31.6688 43.5367C33.9846 43.4312 35.5659 43.0641 36.9487 42.5263C38.3789 41.9695 39.5913 41.2261 40.802 40.0174C42.0126 38.8086 42.7541 37.5943 43.3109 36.1641C43.8487 34.7813 44.2176 33.1999 44.3213 30.8842C44.4267 28.5632 44.4513 27.8234 44.4513 21.9162C44.4513 16.009 44.4267 15.2676 44.3213 12.9483C44.2158 10.6324 43.8487 9.05026 43.3109 7.66839C42.7541 6.23814 42.0107 5.02576 40.802 3.81512C39.5932 2.60448 38.3789 1.86143 36.9504 1.30614C35.5659 0.768425 33.9845 0.399508 31.6706 0.295794C29.3513 0.190339 28.6098 0.164062 22.7026 0.164062C16.7954 0.164062 16.0534 0.188599 13.7329 0.295794Z" fill="url(#paint1_radial)"/>
</g>
<defs>
<radialGradient id="paint0_radial" cx="0" cy="0" r="1" gradientUnits="userSpaceOnUse" gradientTransform="translate(6.72848 43.8739) scale(56.7913)">
<stop offset="0.09" stop-color="#FA8F21"/>
<stop offset="0.78" stop-color="#D82D7E"/>
</radialGradient>
<radialGradient id="paint1_radial" cx="0" cy="0" r="1" gradientUnits="userSpaceOnUse" gradientTransform="translate(27.3321 45.8229) scale(44.7594)">
<stop offset="0.64" stop-color="#8C3AAA" stop-opacity="0"/>
<stop offset="1" stop-color="#8C3AAA"/>
</radialGradient>
<clipPath id="clip0">
<rect width="43.5043" height="43.5043" fill="white" transform="translate(0.946594 0.164062)"/>
</clipPath>
</defs>
</svg>
