<svg width="64" height="17" viewBox="0 0 64 17" fill="none" xmlns="http://www.w3.org/2000/svg">
<g clip-path="url(#clip0)">
<path d="M3.13741 4.83108C3.4364 4.7436 4.07943 4.74757 2.97358 4.83108C3.35902 4.79858 3.7463 4.79194 4.13268 4.8112C4.71427 4.84699 3.44459 4.6919 3.92789 4.77939L4.33746 4.86289L4.69789 4.96231C4.96411 5.04184 5.51704 5.35997 4.69789 4.93845C4.98869 5.08956 5.28767 5.21681 5.56618 5.39178C5.76688 5.51506 6.30751 5.97237 5.63172 5.39178C5.79555 5.53096 5.95937 5.65822 6.11911 5.78944C6.43858 6.07974 6.7048 6.40979 6.9956 6.72395C6.43858 6.12348 7.02836 6.79155 7.15533 6.97447C7.33964 7.25284 7.51576 7.54313 7.67549 7.83342C7.80246 8.06009 7.92123 8.29471 8.03591 8.52535C8.11418 8.67065 8.18259 8.82075 8.2407 8.97471C7.96219 8.11576 8.5274 9.6388 8.44139 9.44792L8.49054 9.55132C8.79181 10.1981 9.13377 10.8262 9.51448 11.4323C10.9726 13.7665 13.172 16.3473 16.0963 16.8683C20.6713 17.6636 23.8332 13.9614 25.877 10.5057C26.1773 10.0024 26.5054 9.5152 26.8599 9.04629L27.1139 8.74804C27.3187 8.47365 26.6715 9.29284 26.8927 9.0264C26.9337 8.97073 26.9787 8.91903 27.0238 8.86336C27.2081 8.64067 27.3965 8.42196 27.5931 8.20722C28.0033 7.75659 28.4424 7.33157 28.9078 6.93471C29.0348 6.82336 29.1658 6.71997 29.3174 6.61658C29.7269 6.28254 28.7604 7.01424 29.2559 6.6643C29.5425 6.45692 29.8421 6.267 30.1529 6.09564C30.4273 5.94055 30.7181 5.82126 31.0007 5.69798C30.1816 6.09564 30.7345 5.80535 30.9721 5.72582C31.1359 5.67412 31.3038 5.6264 31.4717 5.58266C31.6397 5.53892 31.8117 5.51506 31.9837 5.47927C32.3933 5.39576 31.271 5.54289 31.6765 5.51903H31.8526C32.2414 5.44389 32.6423 5.45067 33.0281 5.53892C33.0691 5.53892 32.295 5.41167 32.6513 5.4912C32.7455 5.51506 32.8397 5.52699 32.9339 5.54289C33.1264 5.58664 33.3189 5.63436 33.5032 5.69401C33.6875 5.75365 33.8268 5.80933 33.9865 5.86102C33.1223 5.57868 33.9538 5.86102 34.1872 5.98032C34.5968 6.18313 34.9162 6.44956 35.2931 6.67225C34.6869 6.31436 35.0432 6.48137 35.2029 6.60862L35.5101 6.86313C35.7272 7.04605 35.9197 7.23693 36.1327 7.43178C36.5792 7.87263 37.0016 8.33587 37.3983 8.81962C37.7587 9.24909 37.1689 8.50547 37.3983 8.81962C37.4843 8.93892 37.5785 9.05424 37.6645 9.17354C37.9225 9.5195 38.1396 9.91716 38.4181 10.2472C38.6966 10.5773 38.4673 10.5057 38.3853 10.0086C38.4449 10.2116 38.5302 10.4066 38.6393 10.5892L38.6638 10.6489L38.799 10.9352C38.9751 11.297 39.1635 11.647 39.3642 11.993C40.7609 14.3789 43.1569 17.1387 46.3024 16.8563C48.6943 16.6416 50.3981 15.043 51.6596 13.178C52.4337 12.0526 52.8884 10.792 53.6379 9.64278C53.7771 9.43202 53.9164 9.24512 54.0474 9.02243C54.1294 8.91108 54.2113 8.79576 54.2973 8.68441C54.4324 8.50149 54.9362 7.90898 54.326 8.63272C54.7989 8.05421 55.3034 7.50068 55.8373 6.97447C56.1199 6.70406 56.4107 6.44558 56.7179 6.19903C56.7998 6.13143 56.8899 6.06781 56.9718 5.99623C56.3738 6.49728 56.6687 6.21892 56.8244 6.11155C56.98 6.00418 57.2339 5.81728 57.4674 5.68605C57.8152 5.47584 58.1748 5.28466 58.5446 5.11342C58.9541 4.92254 57.9425 5.34009 58.3644 5.185L58.5732 5.10944C58.819 5.02594 59.0729 4.95038 59.3269 4.89073C59.5808 4.83108 60.3508 4.79927 59.4497 4.83903C59.6422 4.83903 59.8306 4.80722 60.0231 4.79927C60.2156 4.79132 60.49 4.79927 60.7276 4.79927C61.2027 4.82313 60.0805 4.68792 60.5515 4.77541C60.6743 4.77541 60.7931 4.81517 60.916 4.84301C62.1734 5.10149 63.6438 4.48114 63.9509 3.16886C64.2335 1.97588 63.5782 0.500554 62.2266 0.222192C59.8975 -0.257188 57.468 0.118239 55.4072 1.27599C53.7884 2.183 52.3521 3.36727 51.1681 4.77143C50.358 5.69213 49.6317 6.67938 48.9974 7.72207C48.6575 8.30266 48.4158 8.93494 48.0881 9.52746C47.8124 10.0333 47.5046 10.522 47.1666 10.9908C47.1052 11.0783 47.0314 11.1618 46.97 11.2533C47.3509 10.6727 47.1666 11.0068 47.0396 11.1539C46.8687 11.349 46.6868 11.5349 46.4949 11.7106L46.2819 11.9293C46.1304 12.0685 45.9788 12.0168 46.5522 11.7305C46.3925 11.81 46.2533 11.9293 46.0976 12.0128C46.028 12.0526 45.942 12.0804 45.8764 12.1242C46.4621 11.7544 46.413 11.9254 46.1713 11.9969C46.028 12.0367 45.8764 12.0606 45.7331 12.1043C46.5522 11.8697 46.2328 12.0606 45.8969 12.0526C45.2908 12.0526 46.5481 12.1997 46.073 12.0844C45.9625 12.0566 45.8519 12.0327 45.7413 11.9969C45.1638 11.814 46.3597 12.3031 45.815 12.0287C45.7085 11.9731 45.6061 11.9134 45.5078 11.8538C45.2908 11.7186 44.8976 11.3408 45.5897 11.9373C45.3645 11.7424 45.1351 11.5396 44.9262 11.3448C44.7174 11.1499 44.5167 10.8994 44.3242 10.6727C45.0081 11.468 44.3037 10.625 44.148 10.3944C43.6903 9.71806 43.2877 9.00806 42.9439 8.27085C42.8333 8.03623 42.7227 7.77377 43.1282 8.70032C42.7596 7.91919 42.2962 7.18361 41.7479 6.50921C40.9466 5.399 40.0238 4.37635 38.9956 3.45915C37.2549 1.96792 35.2644 0.937981 32.9339 0.723244C31.1624 0.603908 29.3941 0.995424 27.8511 1.84862C25.4879 3.08933 23.5874 5.16909 22.1171 7.3443C21.6174 8.07997 21.1996 8.86734 20.6958 9.60301C20.5607 9.79786 20.1921 10.1319 20.1429 10.3546L20.3477 10.1001C20.2904 10.1756 20.2289 10.2472 20.1675 10.3228C20.1061 10.3983 19.9914 10.5296 19.8972 10.633C19.572 11.0002 19.2187 11.3432 18.8405 11.6589C18.6889 11.7862 18.349 11.977 18.992 11.5555C18.906 11.6112 18.8241 11.6748 18.734 11.7345C18.6439 11.7941 18.4555 11.9094 18.3244 11.989C18.0664 12.1321 17.5053 12.2594 18.3244 12.0248C18.1606 12.0685 18.0008 12.1401 17.837 12.1878C17.6732 12.2355 17.5135 12.2475 17.3578 12.2832C18.2507 12.0765 17.7674 12.2395 17.4643 12.2395C17.3373 12.2395 17.2104 12.2395 17.0834 12.2196C16.7107 12.2196 17.8083 12.3508 17.4397 12.2673C17.3455 12.2475 17.2431 12.2315 17.1489 12.2077C17.0547 12.1838 16.8581 12.1242 16.7189 12.0765C16.2356 11.9214 17.3414 12.3747 16.8868 12.148C16.5888 12.0016 16.3014 11.8355 16.0267 11.651L15.9038 11.5635C15.5966 11.3567 16.4363 11.989 16.1537 11.7504C16.0349 11.651 15.912 11.5555 15.7932 11.4521C15.5557 11.2414 15.3345 11.0227 15.1174 10.792C14.9004 10.5614 14.7406 10.3665 14.5563 10.1478C14.3188 9.86547 14.9659 10.6846 14.7529 10.3944L14.6137 10.2114L14.3106 9.79389C13.7951 9.05496 13.3364 8.28006 12.9385 7.47552C12.8689 7.33634 12.8034 7.19319 12.7378 7.054C12.7378 7.02617 13.0532 7.78968 12.8525 7.30453C12.7296 7.01026 12.5986 6.71599 12.4675 6.4257C12.3364 6.13541 12.2177 5.89681 12.0579 5.63038C11.785 5.10947 11.4715 4.60961 11.12 4.13517C9.91281 2.41692 8.18094 1.10956 6.16826 0.397163C4.90298 -0.00438258 3.55507 -0.0959102 2.24454 0.13073C2.10622 0.147633 1.96934 0.174213 1.83497 0.210262C0.589861 0.568157 -0.315297 1.90827 0.102468 3.15693C0.284997 3.76425 0.703932 4.27868 1.27048 4.5912C1.83702 4.90372 2.50664 4.98976 3.13741 4.83108Z" fill="#FDD60C"/>
</g>
<defs>
<clipPath id="clip0">
<rect width="64" height="17" fill="white"/>
</clipPath>
</defs>
</svg>
