<svg width="65" height="17" viewBox="0 0 65 17" fill="none" xmlns="http://www.w3.org/2000/svg">
<path d="M3.13814 4.8218C3.43713 4.73432 4.08016 4.73829 2.97431 4.8218C3.35975 4.78931 3.74703 4.78266 4.13341 4.80192C4.715 4.83771 3.44532 4.68262 3.92862 4.77011L4.33819 4.85362L4.69862 4.95303C4.96484 5.03256 5.51777 5.35069 4.69862 4.92917C4.98942 5.08028 5.28841 5.20753 5.56692 5.38251C5.76761 5.50578 6.30825 5.96309 5.63245 5.38251C5.79628 5.52169 5.96011 5.64894 6.11984 5.78017C6.43931 6.07046 6.70553 6.40052 6.99633 6.71467C6.43931 6.1142 7.02909 6.78227 7.15606 6.9652C7.34037 7.24356 7.51649 7.53385 7.67622 7.82414C7.80319 8.05081 7.92197 8.28543 8.03665 8.51607C8.11491 8.66137 8.18332 8.81147 8.24143 8.96543C7.96292 8.10648 8.52814 9.62952 8.44213 9.43865L8.49127 9.54204C8.79254 10.1888 9.1345 10.817 9.51521 11.423C10.9733 13.7572 13.1727 16.3381 16.0971 16.859C20.672 17.6543 23.8339 13.9521 25.8777 10.4964C26.178 9.99311 26.5062 9.50592 26.8607 9.03701L27.1146 8.73876C27.3194 8.46438 26.6723 9.28356 26.8934 9.01713C26.9344 8.96145 26.9794 8.90976 27.0245 8.85408C27.2088 8.63139 27.3972 8.41268 27.5938 8.19794C28.004 7.74731 28.4431 7.32229 28.9085 6.92543C29.0355 6.81408 29.1666 6.71069 29.3181 6.6073C29.7277 6.27327 28.7611 7.00496 29.2567 6.65502C29.5433 6.44764 29.8428 6.25773 30.1536 6.08637C30.4281 5.93128 30.7188 5.81198 31.0015 5.6887C30.1823 6.08637 30.7352 5.79607 30.9728 5.71654C31.1366 5.66484 31.3045 5.61713 31.4725 5.57338C31.6404 5.52964 31.8124 5.50578 31.9844 5.46999C32.394 5.38648 31.2718 5.53362 31.6772 5.50976H31.8534C32.2421 5.43461 32.643 5.44139 33.0288 5.52964C33.0698 5.52964 32.2957 5.40239 32.652 5.48192C32.7462 5.50578 32.8404 5.51771 32.9346 5.53362C33.1271 5.57736 33.3196 5.62508 33.504 5.68473C33.6883 5.74438 33.8275 5.80005 33.9872 5.85175C33.123 5.56941 33.9545 5.85175 34.1879 5.97104C34.5975 6.17385 34.917 6.44028 35.2938 6.66297C34.6876 6.30508 35.0439 6.4721 35.2037 6.59935L35.5109 6.85385C35.7279 7.03677 35.9204 7.22765 36.1334 7.42251C36.5799 7.86335 37.0024 8.32659 37.399 8.81034C37.7594 9.23982 37.1696 8.49619 37.399 8.81034C37.485 8.92964 37.5792 9.04496 37.6652 9.16426C37.9233 9.51022 38.1403 9.90789 38.4188 10.2379C38.6973 10.568 38.468 10.4964 38.3861 9.99935C38.4456 10.2023 38.5309 10.3974 38.64 10.5799L38.6646 10.6396L38.7997 10.9259C38.9759 11.2878 39.1643 11.6377 39.365 11.9837C40.7616 14.3696 43.1576 17.1294 46.3031 16.8471C48.695 16.6323 50.3989 15.0337 51.6604 13.1687C52.4345 12.0433 52.8891 10.7827 53.6386 9.6335C53.7779 9.42274 53.9171 9.23584 54.0482 9.01315C54.1301 8.9018 54.212 8.78648 54.298 8.67514C54.4332 8.49221 54.937 7.8997 54.3267 8.62344C54.7997 8.04494 55.3042 7.4914 55.838 6.9652C56.1206 6.69479 56.4114 6.43631 56.7186 6.18976C56.8005 6.12215 56.8906 6.05853 56.9725 5.98695C56.3746 6.488 56.6695 6.20964 56.8251 6.10227C56.9807 5.9949 57.2347 5.808 57.4681 5.67677C57.8159 5.46656 58.1755 5.27538 58.5453 5.10414C58.9549 4.91327 57.9432 5.33081 58.3651 5.17572L58.574 5.10017C58.8197 5.01666 59.0737 4.9411 59.3276 4.88145C59.5815 4.8218 60.3515 4.78999 59.4505 4.82976C59.643 4.82976 59.8314 4.79794 60.0239 4.78999C60.2164 4.78204 60.4908 4.78999 60.7283 4.78999C61.2034 4.81385 60.0812 4.67865 60.5522 4.76613C60.6751 4.76613 60.7939 4.8059 60.9167 4.83373C62.1741 5.09221 63.6445 4.47186 63.9517 3.15958C64.2343 1.9666 63.579 0.491277 62.2274 0.212914C59.8982 -0.266465 57.4687 0.108962 55.408 1.26672C53.7891 2.17373 52.3529 3.358 51.1689 4.76215C50.3587 5.68285 49.6324 6.67011 48.9981 7.7128C48.6582 8.29338 48.4165 8.92566 48.0889 9.51818C47.8131 10.024 47.5054 10.5127 47.1673 10.9816C47.1059 11.0691 47.0322 11.1526 46.9707 11.244C47.3516 10.6634 47.1673 10.9975 47.0404 11.1446C46.8694 11.3397 46.6876 11.5256 46.4956 11.7013L46.2827 11.92C46.1311 12.0592 45.9796 12.0075 46.553 11.7212C46.3932 11.8008 46.254 11.92 46.0983 12.0036C46.0287 12.0433 45.9427 12.0712 45.8772 12.1149C46.4629 11.7451 46.4137 11.9161 46.1721 11.9877C46.0287 12.0274 45.8772 12.0513 45.7338 12.095C46.553 11.8604 46.2335 12.0513 45.8977 12.0433C45.2915 12.0433 46.5489 12.1905 46.0738 12.0751C45.9632 12.0473 45.8526 12.0234 45.742 11.9877C45.1645 11.8047 46.3605 12.2939 45.8157 12.0195C45.7093 11.9638 45.6069 11.9041 45.5086 11.8445C45.2915 11.7093 44.8983 11.3315 45.5905 11.928C45.3652 11.7331 45.1358 11.5303 44.927 11.3355C44.7181 11.1406 44.5174 10.8901 44.3249 10.6634C45.0089 11.4588 44.3044 10.6157 44.1488 10.3851C43.691 9.70878 43.2884 8.99878 42.9446 8.26157C42.834 8.02695 42.7235 7.76449 43.1289 8.69104C42.7604 7.90991 42.297 7.17433 41.7487 6.49993C40.9474 5.38972 40.0245 4.36707 38.9963 3.44987C37.2556 1.95865 35.2651 0.928704 32.9346 0.713967C31.1632 0.59463 29.3949 0.986147 27.8518 1.83935C25.4886 3.08005 23.5882 5.15981 22.1178 7.33502C21.6181 8.07069 21.2004 8.85806 20.6966 9.59373C20.5614 9.78859 20.1928 10.1226 20.1437 10.3453L20.3484 10.0908C20.2911 10.1664 20.2297 10.2379 20.1682 10.3135C20.1068 10.3891 19.9921 10.5203 19.8979 10.6237C19.5727 10.9909 19.2195 11.3339 18.8412 11.6496C18.6897 11.7769 18.3497 11.9678 18.9927 11.5462C18.9067 11.6019 18.8248 11.6655 18.7347 11.7252C18.6446 11.7848 18.4562 11.9002 18.3251 11.9797C18.0671 12.1229 17.506 12.2501 18.3251 12.0155C18.1613 12.0592 18.0016 12.1308 17.8377 12.1785C17.6739 12.2262 17.5142 12.2382 17.3585 12.274C18.2514 12.0672 17.7681 12.2302 17.465 12.2302C17.3381 12.2302 17.2111 12.2302 17.0841 12.2103C16.7114 12.2103 17.8091 12.3416 17.4405 12.2581C17.3463 12.2382 17.2439 12.2223 17.1497 12.1984C17.0555 12.1746 16.8589 12.1149 16.7196 12.0672C16.2363 11.9121 17.3422 12.3654 16.8875 12.1388C16.5895 11.9923 16.3021 11.8262 16.0274 11.6417L15.9046 11.5542C15.5974 11.3474 16.437 11.9797 16.1544 11.7411C16.0356 11.6417 15.9128 11.5462 15.794 11.4429C15.5564 11.2321 15.3353 11.0134 15.1182 10.7827C14.9011 10.5521 14.7414 10.3572 14.5571 10.1385C14.3195 9.85619 14.9666 10.6754 14.7537 10.3851L14.6144 10.2022L14.3113 9.78461C13.7958 9.04568 13.3372 8.27079 12.9392 7.46625C12.8696 7.32707 12.8041 7.18391 12.7386 7.04473C12.7386 7.01689 13.0539 7.7804 12.8532 7.29525C12.7304 7.00099 12.5993 6.70672 12.4682 6.41642C12.3372 6.12613 12.2184 5.88753 12.0587 5.6211C11.7858 5.1002 11.4722 4.60033 11.1207 4.1259C9.91354 2.40764 8.18168 1.10028 6.16899 0.387885C4.90371 -0.0136599 3.5558 -0.105188 2.24527 0.121452C2.10695 0.138356 1.97007 0.164936 1.8357 0.200985C0.590594 0.558879 -0.314565 1.899 0.103201 3.14765C0.28573 3.75497 0.704664 4.26941 1.27121 4.58193C1.83775 4.89445 2.50737 4.98048 3.13814 4.8218Z" fill="#790726"/>
</svg>
