<svg width="64" height="17" viewBox="0 0 64 17" fill="none" xmlns="http://www.w3.org/2000/svg">
<g clip-path="url(#clip0)">
<path d="M3.13741 4.83102C3.4364 4.74353 4.07943 4.74751 2.97358 4.83102C3.35902 4.79852 3.7463 4.79188 4.13268 4.81114C4.71427 4.84693 3.44459 4.69184 3.92789 4.77932L4.33746 4.86283L4.69789 4.96225C4.96411 5.04178 5.51704 5.35991 4.69789 4.93839C4.98869 5.0895 5.28767 5.21675 5.56618 5.39172C5.76688 5.515 6.30751 5.97231 5.63172 5.39172C5.79555 5.5309 5.95937 5.65815 6.11911 5.78938C6.43858 6.07968 6.7048 6.40973 6.9956 6.72389C6.43858 6.12342 7.02836 6.79149 7.15533 6.97441C7.33964 7.25277 7.51576 7.54307 7.67549 7.83336C7.80246 8.06003 7.92123 8.29465 8.03591 8.52529C8.11418 8.67059 8.18259 8.82069 8.2407 8.97465C7.96219 8.1157 8.5274 9.63874 8.44139 9.44786L8.49054 9.55125C8.79181 10.198 9.13377 10.8262 9.51448 11.4322C10.9726 13.7665 13.172 16.3473 16.0963 16.8682C20.6713 17.6635 23.8332 13.9613 25.877 10.5056C26.1773 10.0023 26.5054 9.51514 26.8599 9.04622L27.1139 8.74798C27.3187 8.47359 26.6715 9.29278 26.8927 9.02634C26.9337 8.97067 26.9787 8.91897 27.0238 8.8633C27.2081 8.64061 27.3965 8.4219 27.5931 8.20716C28.0033 7.75652 28.4424 7.33151 28.9078 6.93465C29.0348 6.8233 29.1658 6.71991 29.3174 6.61652C29.7269 6.28248 28.7604 7.01418 29.2559 6.66424C29.5425 6.45686 29.8421 6.26694 30.1529 6.09558C30.4273 5.94049 30.7181 5.8212 31.0007 5.69792C30.1816 6.09558 30.7345 5.80529 30.9721 5.72576C31.1359 5.67406 31.3038 5.62634 31.4717 5.5826C31.6397 5.53886 31.8117 5.515 31.9837 5.47921C32.3933 5.3957 31.271 5.54283 31.6765 5.51897H31.8526C32.2414 5.44382 32.6423 5.4506 33.0281 5.53886C33.0691 5.53886 32.295 5.4116 32.6513 5.49114C32.7455 5.515 32.8397 5.52693 32.9339 5.54283C33.1264 5.58658 33.3189 5.63429 33.5032 5.69394C33.6875 5.75359 33.8268 5.80927 33.9865 5.86096C33.1223 5.57862 33.9538 5.86096 34.1872 5.98026C34.5968 6.18307 34.9162 6.4495 35.2931 6.67219C34.6869 6.31429 35.0432 6.48131 35.2029 6.60856L35.5101 6.86307C35.7272 7.04599 35.9197 7.23687 36.1327 7.43172C36.5792 7.87256 37.0016 8.33581 37.3983 8.81956C37.7587 9.24903 37.1689 8.50541 37.3983 8.81956C37.4843 8.93886 37.5785 9.05418 37.6645 9.17348C37.9225 9.51944 38.1396 9.9171 38.4181 10.2472C38.6966 10.5772 38.4673 10.5056 38.3853 10.0086C38.4449 10.2116 38.5302 10.4066 38.6393 10.5891L38.6638 10.6488L38.799 10.9351C38.9751 11.297 39.1635 11.6469 39.3642 11.9929C40.7609 14.3789 43.1569 17.1386 46.3024 16.8563C48.6943 16.6415 50.3981 15.043 51.6596 13.1779C52.4337 12.0525 52.8884 10.792 53.6379 9.64272C53.7771 9.43196 53.9164 9.24506 54.0474 9.02237C54.1294 8.91102 54.2113 8.7957 54.2973 8.68435C54.4324 8.50143 54.9362 7.90891 54.326 8.63266C54.7989 8.05415 55.3034 7.50061 55.8373 6.97441C56.1199 6.704 56.4107 6.44552 56.7179 6.19897C56.7998 6.13137 56.8899 6.06775 56.9718 5.99617C56.3738 6.49722 56.6687 6.21886 56.8244 6.11149C56.98 6.00412 57.2339 5.81722 57.4674 5.68599C57.8152 5.47577 58.1748 5.2846 58.5446 5.11336C58.9541 4.92248 57.9425 5.34003 58.3644 5.18494L58.5732 5.10938C58.819 5.02587 59.0729 4.95032 59.3269 4.89067C59.5808 4.83102 60.3508 4.79921 59.4497 4.83897C59.6422 4.83897 59.8306 4.80716 60.0231 4.79921C60.2156 4.79125 60.49 4.79921 60.7276 4.79921C61.2027 4.82307 60.0805 4.68786 60.5515 4.77535C60.6743 4.77535 60.7931 4.81511 60.916 4.84295C62.1734 5.10143 63.6438 4.48108 63.9509 3.1688C64.2335 1.97582 63.5782 0.500493 62.2266 0.222131C59.8975 -0.257249 57.468 0.118178 55.4072 1.27593C53.7884 2.18294 52.3521 3.36721 51.1681 4.77137C50.358 5.69207 49.6317 6.67932 48.9974 7.72201C48.6575 8.3026 48.4158 8.93488 48.0881 9.52739C47.8124 10.0332 47.5046 10.5219 47.1666 10.9908C47.1052 11.0783 47.0314 11.1618 46.97 11.2532C47.3509 10.6727 47.1666 11.0067 47.0396 11.1538C46.8687 11.3489 46.6868 11.5348 46.4949 11.7106L46.2819 11.9293C46.1304 12.0684 45.9788 12.0168 46.5522 11.7304C46.3925 11.81 46.2533 11.9293 46.0976 12.0128C46.028 12.0525 45.942 12.0804 45.8764 12.1241C46.4621 11.7543 46.413 11.9253 46.1713 11.9969C46.028 12.0366 45.8764 12.0605 45.7331 12.1042C46.5522 11.8696 46.2328 12.0605 45.8969 12.0525C45.2908 12.0525 46.5481 12.1997 46.073 12.0844C45.9625 12.0565 45.8519 12.0327 45.7413 11.9969C45.1638 11.8139 46.3597 12.3031 45.815 12.0287C45.7085 11.973 45.6061 11.9134 45.5078 11.8537C45.2908 11.7185 44.8976 11.3407 45.5897 11.9372C45.3645 11.7424 45.1351 11.5396 44.9262 11.3447C44.7174 11.1499 44.5167 10.8993 44.3242 10.6727C45.0081 11.468 44.3037 10.6249 44.148 10.3943C43.6903 9.71799 43.2877 9.008 42.9439 8.27079C42.8333 8.03617 42.7227 7.77371 43.1282 8.70026C42.7596 7.91913 42.2962 7.18355 41.7479 6.50915C40.9466 5.39894 40.0238 4.37629 38.9956 3.45909C37.2549 1.96786 35.2644 0.93792 32.9339 0.723183C31.1624 0.603847 29.3941 0.995363 27.8511 1.84856C25.4879 3.08927 23.5874 5.16903 22.1171 7.34424C21.6174 8.07991 21.1996 8.86728 20.6958 9.60295C20.5607 9.7978 20.1921 10.1318 20.1429 10.3545L20.3477 10.1C20.2904 10.1756 20.2289 10.2472 20.1675 10.3227C20.1061 10.3983 19.9914 10.5295 19.8972 10.6329C19.572 11.0001 19.2187 11.3431 18.8405 11.6589C18.6889 11.7861 18.349 11.977 18.992 11.5555C18.906 11.6111 18.8241 11.6748 18.734 11.7344C18.6439 11.7941 18.4555 11.9094 18.3244 11.9889C18.0664 12.1321 17.5053 12.2593 18.3244 12.0247C18.1606 12.0684 18.0008 12.14 17.837 12.1877C17.6732 12.2355 17.5135 12.2474 17.3578 12.2832C18.2507 12.0764 17.7674 12.2394 17.4643 12.2394C17.3373 12.2394 17.2104 12.2394 17.0834 12.2196C16.7107 12.2196 17.8083 12.3508 17.4397 12.2673C17.3455 12.2474 17.2431 12.2315 17.1489 12.2076C17.0547 12.1838 16.8581 12.1241 16.7189 12.0764C16.2356 11.9213 17.3414 12.3746 16.8868 12.148C16.5888 12.0015 16.3014 11.8354 16.0267 11.6509L15.9038 11.5634C15.5966 11.3566 16.4363 11.9889 16.1537 11.7503C16.0349 11.6509 15.912 11.5555 15.7932 11.4521C15.5557 11.2413 15.3345 11.0226 15.1174 10.792C14.9004 10.5613 14.7406 10.3665 14.5563 10.1477C14.3188 9.86541 14.9659 10.6846 14.7529 10.3943L14.6137 10.2114L14.3106 9.79383C13.7951 9.0549 13.3364 8.28 12.9385 7.47546C12.8689 7.33628 12.8034 7.19312 12.7378 7.05394C12.7378 7.02611 13.0532 7.78962 12.8525 7.30447C12.7296 7.0102 12.5986 6.71593 12.4675 6.42564C12.3364 6.13535 12.2177 5.89675 12.0579 5.63032C11.785 5.10941 11.4715 4.60955 11.12 4.13511C9.91281 2.41686 8.18094 1.10949 6.16826 0.397101C4.90298 -0.00444362 3.55507 -0.0959712 2.24454 0.130669C2.10622 0.147572 1.96934 0.174152 1.83497 0.210201C0.589861 0.568096 -0.315297 1.90821 0.102468 3.15687C0.284997 3.76418 0.703932 4.27862 1.27048 4.59114C1.83702 4.90366 2.50664 4.9897 3.13741 4.83102Z" fill="#E31F26"/>
</g>
<defs>
<clipPath id="clip0">
<rect width="64" height="17" fill="white"/>
</clipPath>
</defs>
</svg>
