<svg width="58" height="60" viewBox="0 0 58 60" fill="none" xmlns="http://www.w3.org/2000/svg">
<path d="M29 0C17.6731 0 8.45837 9.5325 8.45837 21.25C8.45837 32.5849 27.2383 58.41 28.0382 59.505C28.263 59.8175 28.6231 60 29.0001 60C29.3771 60 29.7372 59.8175 29.962 59.505C30.7619 58.41 49.5419 32.585 49.5419 21.25C49.5416 9.5325 40.3269 0 29 0ZM29 32.5C23.0043 32.5 18.125 27.4525 18.125 21.25C18.125 15.0475 23.0043 9.99996 29 9.99996C34.9958 9.99996 39.875 15.0475 39.875 21.25C39.875 27.4525 34.9958 32.5 29 32.5Z" fill="#8D2980"/>
</svg>
