<svg width="55" height="55" viewBox="0 0 55 55" fill="none" xmlns="http://www.w3.org/2000/svg">
<g clip-path="url(#clip0)">
<path d="M54.1933 33.3758L45.3269 9.79686C45.3246 9.79227 45.3246 9.78769 45.3223 9.78311L45.32 9.78081C44.1512 6.67102 41.1331 4.58331 37.8125 4.58331C34.4919 4.58331 31.4737 6.67102 30.3027 9.78311C29.9635 10.686 29.7917 11.6371 29.7917 12.6041V22.9166H25.2083V12.6041C25.2083 8.18123 21.6104 4.58331 17.1875 4.58331C13.8669 4.58331 10.8488 6.67102 9.67771 9.78311C9.67542 9.78769 9.67542 9.79227 9.67313 9.79686L0.806667 33.3689C0.806667 33.3712 0.804375 33.3712 0.804375 33.3712C0.270417 34.7944 0 36.2862 0 37.8125C0 44.7631 5.65583 50.4167 12.6042 50.4167C19.5525 50.4167 25.2083 44.7631 25.2083 37.8125V36.6666H29.7917V37.8125C29.7917 44.7631 35.4475 50.4167 42.3958 50.4167C49.3442 50.4167 55 44.7631 55 37.8125C55 36.2862 54.7296 34.7944 54.1933 33.3758ZM12.6042 45.8333C8.18125 45.8333 4.58333 42.2354 4.58333 37.8125C4.58333 36.8408 4.75521 35.8898 5.09438 34.9891C6.26313 31.8816 9.28125 29.7916 12.6042 29.7916C17.0271 29.7916 20.625 33.3896 20.625 37.8125C20.625 42.2354 17.0271 45.8333 12.6042 45.8333ZM42.3958 45.8333C37.9729 45.8333 34.375 42.2354 34.375 37.8125C34.375 33.3896 37.9729 29.7916 42.3958 29.7916C45.7188 29.7916 48.7369 31.8816 49.9056 34.9891C50.2448 35.8898 50.4167 36.8408 50.4167 37.8125C50.4167 42.2354 46.8188 45.8333 42.3958 45.8333Z" fill="#069DD8"/>
</g>
<defs>
<clipPath id="clip0">
<rect width="55" height="55" fill="white"/>
</clipPath>
</defs>
</svg>
